<?xml version="1.0" encoding="utf-8"?>
<!-- Generator: Adobe Illustrator 27.4.0, SVG Export Plug-In . SVG Version: 6.00 Build 0)  -->
<svg version="1.1" id="Layer_1" xmlns="http://www.w3.org/2000/svg" xmlns:xlink="http://www.w3.org/1999/xlink" x="0px" y="0px"
	 viewBox="0 0 104.6 34.1" style="enable-background:new 0 0 104.6 34.1;" xml:space="preserve">
<style type="text/css">
	.st0{fill:#222125;}
	.st1{fill-rule:evenodd;clip-rule:evenodd;fill:#577E79;}
	.st2{fill-rule:evenodd;clip-rule:evenodd;fill:#D54B45;}
	.st3{fill-rule:evenodd;clip-rule:evenodd;fill:#222125;}
	.st4{fill-rule:evenodd;clip-rule:evenodd;fill:#F2AB60;}
</style>
<polygon class="st0" points="54.7,4.6 57,4.6 57,15.9 54.5,15.9 54.5,8.9 51.5,13.5 50.1,13.5 47.1,8.9 47.1,15.9 44.7,15.9 
	44.7,4.6 47,4.6 50.8,10.4 "/>
<path class="st0" d="M59,12c0-0.7,0.1-1.3,0.4-1.9c0.2-0.6,0.6-1,1-1.3s0.8-0.6,1.3-0.7C62.2,8,62.5,7.9,63,7.9c0.8,0,1.4,0.1,2,0.4
	c0.6,0.3,1,0.7,1.2,1.1c0.3,0.5,0.5,1,0.6,1.6s0.1,1.1-0.1,1.7h-5.5c0.1,0.5,0.4,0.9,0.9,1.2s1.1,0.4,1.8,0.4c0.8,0,1.6-0.2,2.3-0.5
	v1.8c-0.8,0.3-1.7,0.5-2.8,0.5c-1.3,0-2.4-0.4-3.2-1.1C59.4,14.3,59,13.3,59,12L59,12z M64.7,11.3c0.1-0.4-0.1-0.7-0.3-1.1
	c-0.3-0.4-0.7-0.6-1.3-0.6c-0.5,0-0.9,0.1-1.3,0.4s-0.5,0.7-0.6,1.2h3.5V11.3z"/>
<path class="st0" d="M68.7,4.6h2.2v4.3c0.7-0.7,1.5-1,2.6-1c1.2,0,2.1,0.4,2.8,1.2s1,1.8,1,2.9s-0.3,2.1-1,2.9
	c-0.7,0.8-1.6,1.2-2.8,1.2c-1.2,0-2.2-0.4-2.8-1.4v1.2h-2L68.7,4.6L68.7,4.6z M74.5,13.6c0.4-0.4,0.6-0.9,0.6-1.6s-0.2-1.1-0.6-1.6
	S73.6,9.8,73,9.8c-0.5,0-0.9,0.1-1.2,0.4s-0.6,0.6-0.8,0.9v1.8c0.2,0.4,0.4,0.7,0.8,0.9s0.8,0.4,1.2,0.4
	C73.6,14.2,74.1,14,74.5,13.6L74.5,13.6z"/>
<path class="st0" d="M78.8,12c0-0.7,0.1-1.3,0.4-1.9s0.6-1,1-1.3s0.8-0.6,1.3-0.7C82,8,82.4,7.9,82.8,7.9c0.8,0,1.4,0.1,2,0.4
	c0.6,0.3,1,0.7,1.2,1.1c0.3,0.5,0.5,1,0.6,1.6s0.1,1.1-0.1,1.7H81c0.1,0.5,0.4,0.9,0.9,1.2s1.1,0.4,1.8,0.4c0.8,0,1.6-0.2,2.3-0.5
	v1.8c-0.8,0.3-1.7,0.5-2.8,0.5c-1.3,0-2.4-0.4-3.2-1.1C79.2,14.3,78.8,13.3,78.8,12L78.8,12z M84.5,11.3c0.1-0.4-0.1-0.7-0.3-1.1
	c-0.3-0.4-0.7-0.6-1.3-0.6c-0.5,0-0.9,0.1-1.3,0.4s-0.5,0.7-0.6,1.2h3.5V11.3z"/>
<polygon class="st0" points="88.6,4.1 90.9,4.1 90.9,15.9 88.6,15.9 "/>
<path class="st0" d="M50.3,18.4h5c1.2,0,2.2,0.2,2.9,0.7s1,1.2,1,2.1c0,1.3-0.6,2.1-1.7,2.5c0.6,0.2,1.1,0.5,1.5,1
	c0.4,0.5,0.6,1.1,0.6,1.9c0,0.6-0.1,1.1-0.4,1.6c-0.3,0.4-0.6,0.8-1.1,1s-0.9,0.4-1.4,0.5s-1,0.1-1.5,0.1h-4.9V18.4L50.3,18.4z
	 M57.2,26.2c0-1-0.6-1.5-1.9-1.5h-2.5v2.9h2.4c0.6,0,1.1-0.1,1.5-0.3C57,27.2,57.2,26.8,57.2,26.2L57.2,26.2z M56.8,21.6
	c0-0.9-0.6-1.3-1.7-1.3h-2.3v2.6h2.4c0.5,0,0.9-0.1,1.2-0.3C56.6,22.4,56.8,22,56.8,21.6L56.8,21.6z"/>
<path class="st0" d="M63.5,23.1c0.3-0.5,0.7-0.8,1.3-1s1.2-0.3,1.9-0.3v2.1c-0.6-0.1-1.2,0-1.7,0.2s-0.9,0.5-1.2,1v4.6h-2.2v-7.8h2
	L63.5,23.1L63.5,23.1z"/>
<path class="st0" d="M75.2,27.7c0,0.3,0.2,0.5,0.6,0.5c0.2,0,0.3,0,0.4-0.1v1.5c-0.4,0.1-0.8,0.2-1.2,0.2c-0.8,0-1.4-0.3-1.7-0.9
	c-0.8,0.6-1.7,1-2.8,1c-0.8,0-1.4-0.2-1.9-0.6s-0.8-1-0.8-1.7c0-0.6,0.2-1.1,0.6-1.5s0.8-0.7,1.3-0.8c0.5-0.1,1-0.2,1.6-0.2
	s1.2,0.1,1.8,0.2v-0.4c0-0.4-0.2-0.7-0.5-1c-0.3-0.2-0.8-0.4-1.4-0.4c-0.9,0-1.8,0.2-2.8,0.6v-1.9c1-0.4,2-0.5,3-0.5
	c2.5,0,3.8,1.2,3.8,3.5V27.7L75.2,27.7z M71.6,26.3c-0.5,0-0.8,0.1-1.2,0.3c-0.3,0.2-0.5,0.4-0.5,0.8c0,0.3,0.1,0.5,0.3,0.7
	c0.2,0.2,0.5,0.3,0.9,0.3c0.7,0,1.3-0.2,1.8-0.6v-1.2C72.4,26.3,72,26.3,71.6,26.3L71.6,26.3z"/>
<path class="st0" d="M79.7,22.9c0.7-0.8,1.6-1.2,2.6-1.2s1.8,0.3,2.3,0.9c0.6,0.6,0.8,1.4,0.8,2.3v4.8h-2.2v-4.5
	c0-0.5-0.1-0.9-0.4-1.1c-0.3-0.3-0.6-0.4-1.1-0.4c-0.7,0-1.3,0.3-1.7,1v5.1h-2.2v-7.9h2L79.7,22.9L79.7,22.9z"/>
<path class="st0" d="M93.6,18.4h2.2v11.3h-2v-1.1c-0.6,0.8-1.5,1.3-2.7,1.3s-2.1-0.4-2.8-1.2c-0.7-0.8-1-1.8-1-2.9s0.3-2.1,1-2.9
	s1.6-1.2,2.8-1.2c1.1,0,1.9,0.4,2.6,1L93.6,18.4L93.6,18.4z M93.6,24.9c-0.2-0.4-0.4-0.7-0.8-0.9s-0.8-0.4-1.2-0.4
	c-0.6,0-1.1,0.2-1.5,0.6s-0.6,1-0.6,1.6s0.2,1.1,0.6,1.6S91,28,91.6,28c0.5,0,0.9-0.1,1.2-0.4s0.6-0.6,0.8-0.9V24.9L93.6,24.9z"/>
<path class="st1" d="M19.9,18.9L7.6,24.2l1.3,3l12-5.2C20.7,20.9,20.3,19.9,19.9,18.9L19.9,18.9z"/>
<path class="st2" d="M16.4,14.9L7,24l2.2,2.3l9.3-9.1C18,16.4,17.3,15.6,16.4,14.9L16.4,14.9z"/>
<path class="st3" d="M35.9,18.4c-0.9,0-1.6,0.7-1.6,1.6c0,3.1,0,9.7,0,9.7h3.4c0,0,0-6.6,0-9.7c0-0.9-0.7-1.6-1.6-1.6
	C36,18.4,36,18.4,35.9,18.4L35.9,18.4z"/>
<path class="st3" d="M1.6,18.4C0.7,18.4,0,19.1,0,20c0,3.1,0,9.7,0,9.7h3.4c0,0,0-6.6,0-9.7c0-0.9-0.7-1.6-1.6-1.6
	C1.7,18.4,1.6,18.4,1.6,18.4L1.6,18.4z"/>
<path class="st4" d="M11.2,12.6L6.4,24.8l3,1.2l4.8-12.3C13.3,13.1,12.3,12.8,11.2,12.6L11.2,12.6z"/>
<path class="st3" d="M29.4,24.1h-21V11.8H7.8c-1,0-1.9,0.2-2.8,0.4v15.2h27.8c0,0,0-14.1,0-21.2c0-0.8-0.4-1.6-1.1-2
	C31,3.8,30.1,3.7,29.4,4c-4.2,1.9-10.6,4.9-10.6,4.9s-6.6-3.1-10.6-5C7.5,3.6,6.8,3.6,6.1,4c-0.6,0.4-1,1.1-1,1.8l0,0l13.6,6.5
	l10.8-4.9L29.4,24.1L29.4,24.1z"/>
</svg>
