<?xml version="1.0" encoding="utf-8"?>
<!-- Generator: Adobe Illustrator 27.4.0, SVG Export Plug-In . SVG Version: 6.00 Build 0)  -->
<svg version="1.1" id="Layer_1" xmlns="http://www.w3.org/2000/svg" xmlns:xlink="http://www.w3.org/1999/xlink" x="0px" y="0px"
	 viewBox="0 0 104.6 34.1" style="enable-background:new 0 0 104.6 34.1;" xml:space="preserve">
<style type="text/css">
	.st0{fill:#FFFFFF;}
	.st1{fill-rule:evenodd;clip-rule:evenodd;fill:#577E79;}
	.st2{fill-rule:evenodd;clip-rule:evenodd;fill:#D54B45;}
	.st3{fill-rule:evenodd;clip-rule:evenodd;fill:#FFFFFF;}
	.st4{fill-rule:evenodd;clip-rule:evenodd;fill:#F2AB60;}
</style>
<polygon class="st0" points="54.8,4.7 57,4.7 57,16 54.6,16 54.6,9 51.6,13.5 50.2,13.5 47.2,9 47.2,16 44.8,16 44.8,4.7 47,4.7 
	50.9,10.5 "/>
<path class="st0" d="M59,12.1c0-0.7,0.1-1.3,0.4-1.9c0.2-0.6,0.6-1,1-1.3c0.4-0.3,0.8-0.6,1.3-0.7S62.5,8,63,8c0.8,0,1.4,0.1,2,0.4
	c0.6,0.3,1,0.7,1.2,1.1c0.3,0.5,0.5,1,0.6,1.6c0.1,0.6,0.1,1.1-0.1,1.7h-5.5c0.1,0.5,0.4,0.9,0.9,1.2s1.1,0.4,1.8,0.4
	c0.8,0,1.6-0.2,2.3-0.5v1.8c-0.8,0.3-1.7,0.5-2.8,0.5c-1.3,0-2.4-0.4-3.2-1.1C59.4,14.4,59,13.4,59,12.1L59,12.1z M64.7,11.4
	c0.1-0.4-0.1-0.7-0.3-1.1c-0.3-0.4-0.7-0.6-1.3-0.6c-0.5,0-0.9,0.1-1.3,0.4s-0.5,0.7-0.6,1.2H64.7L64.7,11.4z"/>
<path class="st0" d="M68.8,4.7H71V9c0.6-0.7,1.5-1,2.6-1c1.2,0,2.1,0.4,2.8,1.2s1,1.8,1,2.9s-0.3,2.1-1,2.9
	c-0.7,0.8-1.6,1.2-2.8,1.2c-1.2,0-2.2-0.5-2.8-1.4V16h-2L68.8,4.7L68.8,4.7z M74.5,13.7c0.4-0.4,0.6-0.9,0.6-1.6s-0.2-1.1-0.6-1.6
	S73.7,9.9,73,9.9c-0.5,0-0.9,0.1-1.2,0.4s-0.6,0.6-0.8,0.9V13c0.2,0.4,0.4,0.7,0.8,0.9s0.8,0.4,1.2,0.4
	C73.7,14.3,74.1,14.1,74.5,13.7L74.5,13.7z"/>
<path class="st0" d="M78.9,12.1c0-0.7,0.1-1.3,0.4-1.9s0.6-1,1-1.3c0.4-0.3,0.8-0.6,1.3-0.7S82.4,8,82.9,8c0.8,0,1.4,0.1,2,0.4
	c0.6,0.3,1,0.7,1.2,1.1c0.3,0.5,0.5,1,0.6,1.6c0.1,0.6,0.1,1.1-0.1,1.7h-5.5c0.1,0.5,0.4,0.9,0.9,1.2s1.1,0.4,1.8,0.4
	c0.8,0,1.6-0.2,2.3-0.5v1.8c-0.8,0.3-1.7,0.5-2.8,0.5c-1.3,0-2.4-0.4-3.2-1.1C79.3,14.4,78.9,13.4,78.9,12.1L78.9,12.1z M84.6,11.4
	c0.1-0.4-0.1-0.7-0.3-1.1c-0.3-0.4-0.7-0.6-1.3-0.6c-0.5,0-0.9,0.1-1.3,0.4s-0.5,0.7-0.6,1.2H84.6L84.6,11.4z"/>
<polygon class="st0" points="88.7,4.2 90.9,4.2 90.9,16 88.7,16 "/>
<path class="st0" d="M50.4,18.4h5c1.2,0,2.2,0.2,2.9,0.7s1,1.2,1,2.1c0,1.3-0.6,2.1-1.7,2.5c0.6,0.2,1.1,0.5,1.5,1
	c0.4,0.5,0.6,1.1,0.6,1.9c0,0.6-0.1,1.1-0.4,1.6c-0.3,0.4-0.6,0.8-1.1,1c-0.5,0.2-0.9,0.4-1.4,0.5c-0.5,0.1-1,0.1-1.5,0.1h-4.9V18.4
	L50.4,18.4z M57.2,26.3c0-1-0.6-1.5-1.9-1.5h-2.5v2.9h2.4c0.6,0,1.1-0.1,1.5-0.3C57.1,27.3,57.2,26.9,57.2,26.3L57.2,26.3z
	 M56.8,21.7c0-0.9-0.6-1.3-1.7-1.3h-2.3V23h2.4c0.5,0,0.9-0.1,1.2-0.3C56.7,22.5,56.8,22.1,56.8,21.7L56.8,21.7z"/>
<path class="st0" d="M63.6,23.2c0.3-0.5,0.7-0.8,1.3-1s1.2-0.3,1.9-0.3V24c-0.6-0.1-1.2,0-1.7,0.2s-0.9,0.5-1.2,1v4.6h-2.2V22h2
	L63.6,23.2L63.6,23.2z"/>
<path class="st0" d="M75.2,27.8c0,0.3,0.2,0.5,0.6,0.5c0.2,0,0.3,0,0.4-0.1v1.5c-0.4,0.1-0.8,0.2-1.2,0.2c-0.8,0-1.4-0.3-1.7-0.9
	c-0.8,0.6-1.7,1-2.8,1c-0.8,0-1.4-0.2-1.9-0.6s-0.8-1-0.8-1.7c0-0.6,0.2-1.1,0.6-1.5c0.4-0.4,0.8-0.7,1.3-0.8c0.5-0.1,1-0.2,1.6-0.2
	c0.6,0,1.2,0.1,1.8,0.2V25c0-0.4-0.2-0.7-0.5-1c-0.3-0.2-0.8-0.4-1.4-0.4c-0.9,0-1.8,0.2-2.8,0.6v-1.9c1-0.4,2-0.5,3-0.5
	c2.5,0,3.8,1.2,3.8,3.5V27.8L75.2,27.8z M71.6,26.4c-0.5,0-0.8,0.1-1.2,0.3c-0.3,0.2-0.5,0.4-0.5,0.8c0,0.3,0.1,0.5,0.3,0.7
	c0.2,0.2,0.5,0.3,0.9,0.3c0.7,0,1.3-0.2,1.8-0.6v-1.2C72.5,26.4,72,26.4,71.6,26.4L71.6,26.4z"/>
<path class="st0" d="M79.7,23c0.7-0.8,1.6-1.2,2.6-1.2c1,0,1.8,0.3,2.3,0.9c0.6,0.6,0.8,1.4,0.8,2.3v4.8h-2.2v-4.5
	c0-0.5-0.1-0.9-0.4-1.1c-0.3-0.3-0.6-0.4-1.1-0.4c-0.7,0-1.3,0.3-1.7,1v5.1h-2.2V22h2L79.7,23L79.7,23z"/>
<path class="st0" d="M93.7,18.4h2.2v11.3h-2v-1.1c-0.7,0.9-1.6,1.4-2.8,1.4c-1.2,0-2.1-0.4-2.8-1.2c-0.7-0.8-1-1.8-1-2.9
	s0.3-2.1,1-2.9s1.6-1.2,2.8-1.2c1.1,0,1.9,0.4,2.6,1L93.7,18.4L93.7,18.4z M93.7,25c-0.2-0.4-0.4-0.7-0.8-0.9s-0.8-0.4-1.2-0.4
	c-0.6,0-1.1,0.2-1.5,0.6c-0.4,0.4-0.6,1-0.6,1.6c0,0.6,0.2,1.1,0.6,1.6s0.9,0.6,1.5,0.6c0.5,0,0.9-0.1,1.2-0.4s0.6-0.6,0.8-0.9V25
	L93.7,25z"/>
<path class="st1" d="M19.9,19L7.6,24.4l1.3,3l12-5.2C20.7,21,20.4,20,19.9,19L19.9,19z"/>
<path class="st2" d="M16.5,15l-9.4,9.1l2.2,2.3l9.4-9.1C18,16.5,17.3,15.7,16.5,15L16.5,15z"/>
<path class="st3" d="M35.9,18.4c-0.9,0-1.6,0.7-1.6,1.6c0,3.1,0,9.7,0,9.7h3.4c0,0,0-6.6,0-9.7c0-0.9-0.7-1.6-1.6-1.6
	C36.1,18.4,36,18.4,35.9,18.4L35.9,18.4z"/>
<path class="st3" d="M1.6,18.4C0.7,18.4,0,19.2,0,20c0,3.1,0,9.7,0,9.7h3.4c0,0,0-6.6,0-9.7c0-0.9-0.7-1.6-1.6-1.6
	C1.8,18.4,1.7,18.4,1.6,18.4L1.6,18.4z"/>
<path class="st4" d="M11.2,12.7L6.5,24.9l3,1.2l4.8-12.3C13.3,13.2,12.3,12.9,11.2,12.7L11.2,12.7z"/>
<path class="st3" d="M29.5,24.2h-21V11.9H7.9c-1,0-1.9,0.2-2.8,0.4v15.2h27.8c0,0,0-14.1,0-21.2c0-0.8-0.4-1.6-1.1-2
	C31,4,30.2,3.9,29.4,4.3c-4.2,1.9-10.6,4.9-10.6,4.9s-6.6-3.1-10.6-5C7.5,3.8,6.7,3.9,6.1,4.3c-0.6,0.4-1,1.1-1,1.8l0,0l13.6,6.5
	l10.8-4.9L29.5,24.2L29.5,24.2z"/>
</svg>
