<?xml version="1.0" encoding="utf-8"?>
<!-- Generator: Adobe Illustrator 27.2.0, SVG Export Plug-In . SVG Version: 6.00 Build 0)  -->
<svg version="1.1" id="Layer_1" xmlns="http://www.w3.org/2000/svg" xmlns:xlink="http://www.w3.org/1999/xlink" x="0px" y="0px"
	 viewBox="0 0 24 24" style="enable-background:new 0 0 24 24;" xml:space="preserve">
<style type="text/css">
	.st0{fill:#222125;}
</style>
<path class="st0" d="M21,21.7H3c-0.7,0-1.4-0.3-1.9-0.8c-0.5-0.5-0.8-1.2-0.8-1.9V8c0-0.7,0.3-1.4,0.8-1.9C1.6,5.6,2.3,5.4,3,5.4
	h3.7l1.8-2.7C8.6,2.5,8.8,2.4,9,2.4h6c0.2,0,0.4,0.1,0.5,0.3l1.8,2.7H21c0.7,0,1.4,0.3,1.9,0.8c0.5,0.5,0.8,1.2,0.8,1.9v11
	c0,0.7-0.3,1.4-0.8,1.9C22.4,21.4,21.7,21.7,21,21.7z M3,6.6C2.6,6.6,2.3,6.8,2,7S1.6,7.6,1.6,8v11c0,0.4,0.1,0.7,0.4,1
	c0.3,0.3,0.6,0.4,1,0.4h18c0.4,0,0.7-0.1,1-0.4c0.3-0.3,0.4-0.6,0.4-1V8c0-0.4-0.1-0.7-0.4-1c-0.3-0.3-0.6-0.4-1-0.4h-4
	c-0.2,0-0.4-0.1-0.5-0.3l-1.8-2.7H9.3L7.5,6.4C7.4,6.5,7.2,6.6,7,6.6H3z"/>
<path class="st0" d="M12,17.7c-2.6,0-4.6-2.1-4.6-4.7c0-2.6,2.1-4.6,4.6-4.6c2.6,0,4.7,2.1,4.7,4.6C16.7,15.6,14.6,17.7,12,17.7z
	 M12,9.6c-1.8,0-3.4,1.5-3.4,3.4c0,1.8,1.5,3.3,3.4,3.3c1.8,0,3.3-1.5,3.3-3.3C15.3,11.2,13.8,9.6,12,9.6z"/>
</svg>
