<?xml version="1.0" encoding="utf-8"?>
<!-- Generator: Adobe Illustrator 27.2.0, SVG Export Plug-In . SVG Version: 6.00 Build 0)  -->
<svg version="1.1" id="Layer_1" xmlns="http://www.w3.org/2000/svg" xmlns:xlink="http://www.w3.org/1999/xlink" x="0px" y="0px"
	 viewBox="0 0 32 32" style="enable-background:new 0 0 32 32;" xml:space="preserve">
<style type="text/css">
	.st0{fill:#222125;}
</style>
<g>
	<path class="st0" d="M27.2,5.8h-1.3l-0.1-0.4c-0.2-1.4-1.6-2.4-3-2.1l-3.6,0.6l-0.1-0.2c-0.3-0.6-0.9-1-1.6-1.2
		c-0.7-0.2-1.4-0.1-2,0.2l-4.9,2.7L8.7,5.7c-1,0.2-1.8,0.9-2.1,1.9L3,9.7c-1.3,0.7-1.7,2.3-1,3.6l7.4,13.3c1.1,2,3.1,3.1,5.2,3.1
		c0.2,0,0.4,0,0.6,0v0.1h11.9c1.4,0,2.6-1.2,2.6-2.6V8.4C29.8,7,28.6,5.8,27.2,5.8z M27.6,24c0.1,0.6-0.3,1.2-0.9,1.3l-4,0.8
		l4.5-2.5c0.1-0.1,0.2-0.1,0.3-0.2L27.6,24z M27.2,7.3c0.6,0,1.1,0.5,1.1,1.1v11.2L26.1,7.3H27.2z M23.1,4.8
		c0.6-0.1,1.2,0.3,1.3,0.9l1.9,10.9L20,5.3L23.1,4.8z M10.8,25.8L3.3,12.5C3,11.9,3.2,11.3,3.8,11l12.5-7c0.2-0.1,0.4-0.1,0.5-0.1
		c0.4,0,0.8,0.2,1,0.6l9.1,16.3c0.1,0.3,0.2,0.6,0.1,0.8c-0.1,0.3-0.3,0.5-0.5,0.7l-9.5,5.3C14.7,28.7,12,28,10.8,25.8z M27.2,28.2
		h-7.7l7.4-1.4c0.6-0.1,1-0.4,1.4-0.7v1C28.3,27.7,27.8,28.2,27.2,28.2z"/>
	<path class="st0" d="M17.9,23.8c0-1.7-1.4-3.1-3.1-3.1c-1.7,0-3.1,1.4-3.1,3.1c0,1.7,1.4,3.1,3.1,3.1
		C16.5,26.9,17.9,25.5,17.9,23.8z M14.8,25.4c-0.9,0-1.6-0.7-1.6-1.6c0-0.9,0.7-1.6,1.6-1.6c0.9,0,1.6,0.7,1.6,1.6
		C16.4,24.7,15.7,25.4,14.8,25.4z"/>
</g>
</svg>
