<?xml version="1.0" encoding="utf-8"?>
<!-- Generator: Adobe Illustrator 27.4.0, SVG Export Plug-In . SVG Version: 6.00 Build 0)  -->
<svg version="1.1" id="Layer_1" xmlns="http://www.w3.org/2000/svg" xmlns:xlink="http://www.w3.org/1999/xlink" x="0px" y="0px"
	 viewBox="0 0 28.3 24.1" style="enable-background:new 0 0 28.3 24.1;" xml:space="preserve">
<style type="text/css">
	.st0{fill:none;stroke:#222125;stroke-width:1.5;stroke-miterlimit:10;}
	.st1{fill:none;stroke:#222125;stroke-width:1.5;stroke-linecap:round;stroke-linejoin:round;stroke-miterlimit:10;}
	.st2{fill:none;stroke:#222125;stroke-width:1.5;stroke-linecap:round;stroke-miterlimit:10;}
</style>
<path class="st0" d="M22,10v2c0,0.5-0.4,1-1,1H7.4c-0.5,0-1-0.4-1-1v-2c0-0.5-0.4-1-1-1H2.1c-0.5,0-1,0.4-1,1v8.1c0,0.5,0.4,1,1,1
	h4.4H22h4.4c0.5,0,1-0.4,1-1V10c0-0.5-0.4-1-1-1h-3.4C22.4,9,22,9.5,22,10z"/>
<line class="st1" x1="24.4" y1="19.6" x2="24.4" y2="22.4"/>
<path class="st0" d="M3.9,9V3.5c0-0.5,0.4-1,1-1h18.6c0.5,0,1,0.4,1,1v5.8"/>
<line class="st2" x1="3.9" y1="22.4" x2="3.9" y2="19.6"/>
</svg>
