<?xml version="1.0" encoding="utf-8"?>
<!-- Generator: Adobe Illustrator 27.8.1, SVG Export Plug-In . SVG Version: 6.00 Build 0)  -->
<svg version="1.1" id="Layer_1" xmlns="http://www.w3.org/2000/svg" xmlns:xlink="http://www.w3.org/1999/xlink" x="0px" y="0px"
	 viewBox="0 0 88.1 32" style="enable-background:new 0 0 88.1 32;" xml:space="preserve">
<style type="text/css">
	.st0{fill:#E0E1E1;}
	.st1{fill:none;stroke:#9088A0;stroke-width:1.2;stroke-linejoin:round;stroke-miterlimit:10;}
	.st2{fill:#FFD15E;}
	.st3{fill:#CACACA;stroke:#9088A0;stroke-width:1.2;stroke-linecap:round;stroke-miterlimit:10;}
</style>
<polygon class="st0" points="7.5,5.2 31.9,5 32.1,11.3 38,11.4 38.2,23.3 1.1,23.4 1.3,11.2 7.3,11.2 "/>
<rect x="1.3" y="11.3" class="st1" width="6.3" height="11.8"/>
<rect x="31.8" y="11.3" class="st1" width="6.3" height="11.8"/>
<rect x="7.5" y="13.6" class="st1" width="24.2" height="9.5"/>
<rect x="7.5" y="5.2" class="st1" width="24.3" height="8.3"/>
<line class="st1" x1="19.9" y1="5.2" x2="19.9" y2="13.4"/>
<line class="st1" x1="4.2" y1="22.9" x2="4.2" y2="24.4"/>
<line class="st1" x1="34.8" y1="22.9" x2="34.8" y2="24.4"/>
<rect x="55.8" y="5.3" class="st2" width="24.4" height="8.4"/>
<polygon class="st0" points="56,13.5 80.2,13.6 80.6,11.3 86.5,11.4 86.7,23.3 49.7,23.1 49.8,11.2 55.8,11.2 "/>
<rect x="49.8" y="11.3" class="st1" width="6.3" height="11.8"/>
<rect x="80.3" y="11.3" class="st1" width="6.3" height="11.8"/>
<rect x="56" y="13.6" class="st1" width="24.2" height="9.5"/>
<rect x="56" y="5.2" class="st1" width="24.3" height="8.3"/>
<line class="st1" x1="68.4" y1="5.6" x2="68.4" y2="13.1"/>
<line class="st1" x1="52.7" y1="22.9" x2="52.7" y2="24.4"/>
<line class="st1" x1="83.3" y1="22.9" x2="83.3" y2="24.4"/>
<line class="st3" x1="46.9" y1="1.4" x2="41.3" y2="30.6"/>
</svg>
