<?xml version="1.0" encoding="utf-8"?>
<!-- Generator: Adobe Illustrator 27.7.0, SVG Export Plug-In . SVG Version: 6.00 Build 0)  -->
<svg version="1.1" id="Layer_1" xmlns="http://www.w3.org/2000/svg" xmlns:xlink="http://www.w3.org/1999/xlink" x="0px" y="0px"
	 viewBox="0 0 32 32" style="enable-background:new 0 0 32 32;" xml:space="preserve">
<style type="text/css">
	.st0{fill:none;stroke:#222125;stroke-width:1.2;stroke-linecap:round;stroke-linejoin:round;stroke-miterlimit:10;}
</style>
<polyline class="st0" points="22.1,9.4 30.2,13.5 14,21.6 1.8,15.5 "/>
<polyline class="st0" points="1.8,9.5 1.8,21.6 14,27.7 "/>
<polyline class="st0" points="22.1,9.4 5.9,17.6 5.9,23.6 "/>
<line class="st0" x1="18" y1="1.3" x2="22.1" y2="3.3"/>
<line class="st0" x1="1.8" y1="21.6" x2="1.8" y2="24.6"/>
<line class="st0" x1="14" y1="27.7" x2="14" y2="30.7"/>
<line class="st0" x1="30.2" y1="19.6" x2="30.2" y2="22.6"/>
<line class="st0" x1="1.8" y1="9.4" x2="18" y2="1.3"/>
<polyline class="st0" points="5.9,17.6 5.9,11.5 22.1,3.3 22.1,9.5 "/>
<line class="st0" x1="1.8" y1="9.4" x2="5.9" y2="11.5"/>
<polyline class="st0" points="9.9,5.4 14,7.4 14,13.5 "/>
<polyline class="st0" points="30.2,13.5 30.2,19.6 14,27.7 14,21.6 "/>
</svg>
