<?xml version="1.0" encoding="utf-8"?>
<!-- Generator: Adobe Illustrator 27.2.0, SVG Export Plug-In . SVG Version: 6.00 Build 0)  -->
<svg version="1.1" id="Layer_1" xmlns="http://www.w3.org/2000/svg" xmlns:xlink="http://www.w3.org/1999/xlink" x="0px" y="0px"
	 viewBox="0 0 51 51" style="enable-background:new 0 0 51 51;" xml:space="preserve">
<style type="text/css">
	.st0{fill:#FFFFFF;}
</style>
<path class="st0" d="M29.1,47.2c-0.2,0-0.4-0.1-0.5-0.2c-0.2-0.1-0.3-0.4-0.3-0.6V31.9c0-0.4,0.3-0.8,0.8-0.8h4.2l0.7-4.5h-4.9
	c-0.4,0-0.8-0.3-0.8-0.8v-3.9c0-2.5,1.6-4,4.2-4h1.8v-3.7c-0.8-0.1-2.4-0.3-3.9-0.3c-4.5,0-7.1,2.7-7.1,7.3v4.6
	c0,0.4-0.3,0.8-0.8,0.8h-4.5v4.5h4.5c0.4,0,0.8,0.3,0.8,0.8v14.5c0,0.2-0.1,0.4-0.3,0.6c-0.2,0.1-0.4,0.2-0.6,0.2
	C11.9,45.5,4.3,36.5,4.3,25.8c0-11.9,9.7-21.6,21.6-21.6c11.9,0,21.6,9.7,21.6,21.6c0,10.7-7.7,19.7-18.2,21.3
	C29.2,47.2,29.1,47.2,29.1,47.2z M29.9,32.6v12.8c9.3-1.9,16-10,16-19.6c0-11-9-20-20-20s-20,9-20,20c0,9.6,6.7,17.7,16,19.6V32.6
	h-4.5c-0.4,0-0.8-0.3-0.8-0.8v-6c0-0.4,0.3-0.8,0.8-0.8h4.5v-3.8c0-5.5,3.3-8.9,8.6-8.9c2.3,0,4.7,0.4,4.8,0.4
	c0.4,0.1,0.6,0.4,0.6,0.8v5.1c0,0.4-0.3,0.8-0.8,0.8h-2.6c-1.7,0-2.6,0.8-2.6,2.5v3.1h5c0.2,0,0.4,0.1,0.6,0.3
	c0.1,0.2,0.2,0.4,0.2,0.6l-0.9,6c-0.1,0.4-0.4,0.7-0.8,0.7H29.9z"/>
</svg>
