<?xml version="1.0" encoding="utf-8"?>
<!-- Generator: Adobe Illustrator 27.2.0, SVG Export Plug-In . SVG Version: 6.00 Build 0)  -->
<svg version="1.1" id="Layer_1" xmlns="http://www.w3.org/2000/svg" xmlns:xlink="http://www.w3.org/1999/xlink" x="0px" y="0px"
	 viewBox="0 0 43 42" style="enable-background:new 0 0 43 42;" xml:space="preserve">
<style type="text/css">
	.st0{fill:#222125;}
</style>
<path class="st0" d="M21.5,41.3c-5.9,0-6.6,0-8.9-0.1l0,0c-2-0.1-3.5-0.4-4.9-0.9c-1.3-0.5-2.5-1.3-3.4-2.2c-1-1-1.8-2.1-2.2-3.4
	l0,0c-0.6-1.4-0.8-2.9-0.9-4.9l0,0l0,0c-0.1-2.3-0.1-3-0.1-8.9c0-5.8,0-6.6,0.1-8.9l0,0l0,0C1.2,10,1.4,8.4,2,7
	c0.5-1.3,1.3-2.5,2.2-3.4c1-1,2.2-1.8,3.4-2.2c1.4-0.6,3-0.8,4.9-0.9c2.3-0.1,3-0.1,8.9-0.1c5.8,0,6.6,0,8.9,0.1l0,0l0,0
	c2,0.1,3.5,0.4,4.9,0.9c1.3,0.5,2.5,1.3,3.4,2.2c1,1,1.8,2.2,2.2,3.4c0.6,1.4,0.8,3,0.9,4.9l0,0c0.1,2.3,0.1,3,0.1,8.9
	c0,5.9,0,6.6-0.1,8.9l0,0c-0.1,2-0.4,3.5-0.9,4.9c-0.5,1.3-1.2,2.5-2.2,3.4c-1,1-2.2,1.8-3.4,2.2c-1.4,0.6-3,0.8-4.9,0.9l0,0
	C28.1,41.3,27.4,41.3,21.5,41.3z M3.5,34c0.4,1.1,1.1,2.1,1.9,2.9c0.8,0.8,1.8,1.5,2.9,1.9c0.9,0.3,2.1,0.7,4.4,0.8
	c2.3,0.1,3,0.1,8.8,0.1c5.8,0,6.5,0,8.8-0.1c2.3-0.1,3.5-0.5,4.4-0.8c1.1-0.4,2.1-1.1,2.9-1.9c0.8-0.8,1.5-1.8,1.9-2.9
	c0.3-0.8,0.7-2.1,0.8-4.4c0.1-2.3,0.1-3,0.1-8.8c0-5.8,0-6.5-0.1-8.8c-0.1-2.3-0.5-3.6-0.8-4.4c-0.4-1.2-1-2-1.9-2.9
	c-0.9-0.9-1.7-1.4-2.9-1.9c-0.8-0.3-2.1-0.7-4.4-0.8l-0.6,0L12.7,2c-2.3,0.1-3.5,0.5-4.4,0.8C7.2,3.2,6.2,3.9,5.4,4.7
	C4.5,5.6,3.9,6.4,3.5,7.6C3.1,8.4,2.8,9.7,2.6,12l0,0.6l0,17.2L3.5,34z M3.4,33.9C3.4,33.9,3.4,33.9,3.4,33.9L3.4,33.9L3.4,33.9z
	 M21.5,30.8c-2.7,0-5.2-1-7.1-2.9s-2.9-4.4-2.9-7.1c0-2.7,1-5.2,2.9-7.1c1.9-1.9,4.4-2.9,7.1-2.9c2.7,0,5.2,1,7.1,2.9
	c1.9,1.9,2.9,4.4,2.9,7.1c0,2.7-1,5.2-2.9,7.1C26.7,29.8,24.2,30.8,21.5,30.8z M18.3,28.6c1,0.4,2.1,0.6,3.2,0.6
	c2.2,0,4.4-0.9,5.9-2.5c1.6-1.6,2.5-3.7,2.5-5.9c0-2.2-0.9-4.4-2.5-5.9c-1.6-1.6-3.7-2.5-5.9-2.5c-1.1,0-2.2,0.2-3.2,0.6
	s-1.9,1-2.7,1.8c-0.8,0.8-1.4,1.7-1.8,2.7c-0.4,1-0.6,2.1-0.6,3.2s0.2,2.2,0.6,3.2c0.4,1,1,1.9,1.8,2.7
	C16.3,27.5,17.2,28.2,18.3,28.6L18.3,28.6z M33.3,12.9c-0.9,0-1.8-0.4-2.4-1c-0.6-0.6-1-1.5-1-2.4c0-0.9,0.4-1.8,1-2.4
	c1.3-1.3,3.5-1.3,4.8,0c0.6,0.6,1,1.5,1,2.4c0,0.9-0.4,1.8-1,2.4C35,12.5,34.2,12.9,33.3,12.9z M33.3,7.6c-0.5,0-1,0.2-1.3,0.5
	c-0.3,0.3-0.5,0.8-0.5,1.3c0,0.5,0.2,1,0.5,1.3c0.7,0.7,1.9,0.7,2.6,0c0.3-0.4,0.5-0.8,0.5-1.3c0-0.5-0.2-1-0.5-1.3
	C34.2,7.8,33.7,7.6,33.3,7.6z"/>
</svg>
