<?xml version="1.0" encoding="utf-8"?>
<!-- Generator: Adobe Illustrator 27.2.0, SVG Export Plug-In . SVG Version: 6.00 Build 0)  -->
<svg version="1.1" id="Layer_1" xmlns="http://www.w3.org/2000/svg" xmlns:xlink="http://www.w3.org/1999/xlink" x="0px" y="0px"
	 viewBox="0 0 29 29" style="enable-background:new 0 0 29 29;" xml:space="preserve">
<style type="text/css">
	.st0{fill:#FFFFFF;}
</style>
<path class="st0" d="M9.9,28.2c-0.7,0-1.4-0.3-1.9-0.8l-7.1-7.1c-1.1-1.1-1.1-2.8,0-3.9L16.4,0.9c1.1-1.1,2.8-1.1,3.9,0l0,0L27.4,8
	c0.5,0.5,0.8,1.2,0.8,1.9s-0.3,1.4-0.8,1.9L11.8,27.4C11.3,27.9,10.6,28.2,9.9,28.2z M3,16.5l-1,1c-0.5,0.5-0.5,1.3,0,1.8L9,26.3
	c0.5,0.5,1.3,0.5,1.8,0l15.6-15.6c0.2-0.2,0.4-0.5,0.4-0.9S26.6,9.3,26.3,9l-7.1-7.1c-0.5-0.5-1.3-0.5-1.8,0l-1,1c0,0,0,0,0,0
	l1.4,1.4c0.3,0.3,0.3,0.8,0,1.1s-0.8,0.3-1.1,0L15.5,4c0,0,0,0,0,0L14,5.4c0,0,0,0,0,0L17.5,9c0.3,0.3,0.3,0.8,0,1.1s-0.8,0.3-1.1,0
	L13,6.5c0,0,0,0,0,0l-1.4,1.4c0,0,0,0,0,0l1.4,1.4c0.3,0.3,0.3,0.8,0,1.1s-0.8,0.3-1.1,0L10.5,9c0,0,0,0,0,0L9,10.5c0,0,0,0,0,0
	l1.4,1.4c0.3,0.3,0.3,0.8,0,1.1s-0.8,0.3-1.1,0L8,11.5c0,0,0,0,0,0l-1.4,1.4c0,0,0,0,0,0l3.5,3.5c0.3,0.3,0.3,0.8,0,1.1
	s-0.8,0.3-1.1,0L5.5,14c0,0,0,0,0,0L4,15.5c0,0,0.1,0.1,0.1,0.1L5.5,17c0.3,0.3,0.3,0.8,0,1.1s-0.8,0.3-1.1,0l-1.4-1.4
	C3,16.6,3,16.5,3,16.5z"/>
</svg>
