<?xml version="1.0" encoding="utf-8"?>
<!-- Generator: Adobe Illustrator 27.7.0, SVG Export Plug-In . SVG Version: 6.00 Build 0)  -->
<svg version="1.1" id="Layer_1" xmlns="http://www.w3.org/2000/svg" xmlns:xlink="http://www.w3.org/1999/xlink" x="0px" y="0px"
	 viewBox="0 0 32 32" style="enable-background:new 0 0 32 32;" xml:space="preserve">
<style type="text/css">
	.st0{fill:#F4F6F7;}
</style>
<path class="st0" d="M16.2,28c-1.1,0-2.1-0.1-3.2-0.4C10.9,27,9,26,7.5,24.4C6.1,22.9,5,21,4.4,19c-0.6-2.1-0.6-4.2,0-6.3
	s1.6-4,3.2-5.5C9.1,5.7,11,4.6,13,4c0.4-0.1,0.8,0,1,0.3c0.3,0.3,0.3,0.7,0.2,1c-0.1,0.2-1.9,5.2,2.7,9.7c4.5,4.5,9.5,2.7,9.7,2.7
	c0.4-0.1,0.7-0.1,1,0.2c0.3,0.3,0.4,0.6,0.3,1c-0.6,2.1-1.6,4-3.2,5.5s-3.4,2.6-5.5,3.2C18.3,27.9,17.3,28,16.2,28z M11.9,6.6
	c-1.1,0.5-2.1,1.2-2.9,2c-1.3,1.3-2.2,2.8-2.6,4.6c-0.5,1.7-0.5,3.5,0,5.3C6.8,20.2,7.7,21.8,9,23c1.3,1.3,2.8,2.2,4.6,2.6
	c1.7,0.5,3.6,0.5,5.3,0s3.3-1.4,4.6-2.6c0.9-0.9,1.5-1.8,2-2.9c-2.3,0.3-6.3,0.1-10-3.6S11.6,8.9,11.9,6.6z M13.3,5L13.3,5L13.3,5z"
	/>
</svg>
