<?xml version="1.0" encoding="utf-8"?>
<!-- Generator: Adobe Illustrator 27.2.0, SVG Export Plug-In . SVG Version: 6.00 Build 0)  -->
<svg version="1.1" id="Layer_1" xmlns="http://www.w3.org/2000/svg" xmlns:xlink="http://www.w3.org/1999/xlink" x="0px" y="0px"
	 viewBox="0 0 30 31" style="enable-background:new 0 0 30 31;" xml:space="preserve">
<style type="text/css">
	.st0{fill:none;stroke:#FFFFFF;stroke-width:1.5;stroke-linecap:round;stroke-linejoin:round;}
</style>
<g>
	<path class="st0" d="M29,22.3v4.2c0,0.4-0.1,0.8-0.2,1.1c-0.2,0.4-0.4,0.7-0.7,0.9c-0.3,0.3-0.6,0.5-1,0.6
		c-0.4,0.1-0.8,0.2-1.2,0.1c-4.3-0.5-8.5-1.9-12.1-4.3c-3.4-2.1-6.3-5-8.4-8.3C2.9,13.1,1.4,9,1,4.7c0-0.4,0-0.8,0.1-1.1
		c0.1-0.4,0.3-0.7,0.6-1C2,2.3,2.3,2.1,2.6,1.9C3,1.7,3.4,1.7,3.8,1.7H8c0.7,0,1.3,0.2,1.9,0.7c0.5,0.4,0.9,1,1,1.7
		c0.2,1.3,0.5,2.6,1,3.9C12,8.4,12,9,11.9,9.5c-0.1,0.5-0.4,1-0.8,1.4l-1.8,1.8c2,3.5,4.9,6.3,8.4,8.3l1.8-1.8
		c0.4-0.4,0.9-0.6,1.4-0.7c0.5-0.1,1.1-0.1,1.6,0.1c1.3,0.5,2.6,0.8,4,1c0.7,0.1,1.3,0.4,1.8,1C28.7,21,29,21.6,29,22.3z"/>
</g>
</svg>
