<?xml version="1.0" encoding="utf-8"?>
<!-- Generator: Adobe Illustrator 27.4.0, SVG Export Plug-In . SVG Version: 6.00 Build 0)  -->
<svg version="1.1" id="Layer_1" xmlns="http://www.w3.org/2000/svg" xmlns:xlink="http://www.w3.org/1999/xlink" x="0px" y="0px"
	 viewBox="0 0 24 24" style="enable-background:new 0 0 24 24;" xml:space="preserve">
<style type="text/css">
	.st0{fill:#FFFFFF;}
</style>
<path class="st0" d="M9,22.7c-0.9,0-1.6-0.7-1.6-1.7s0.7-1.7,1.6-1.7s1.6,0.7,1.6,1.7S9.9,22.7,9,22.7z M9,20.7
	c-0.2,0-0.4,0.2-0.4,0.3s0.2,0.3,0.4,0.3s0.4-0.2,0.4-0.3S9.2,20.7,9,20.7z"/>
<path class="st0" d="M20,22.7c-0.9,0-1.7-0.7-1.7-1.7s0.7-1.7,1.7-1.7s1.7,0.7,1.7,1.7S20.9,22.7,20,22.7z M20,20.7
	c-0.2,0-0.3,0.2-0.3,0.3s0.2,0.3,0.3,0.3s0.3-0.2,0.3-0.3S20.2,20.7,20,20.7z"/>
<path class="st0" d="M9.6,16.7c-0.6,0-1.2-0.2-1.7-0.6S7.1,15.2,7,14.6L5.4,6.2c0,0,0,0,0-0.1L4.5,1.6H1C0.6,1.6,0.4,1.4,0.4,1
	S0.6,0.4,1,0.4h4c0.3,0,0.6,0.2,0.6,0.5l0.9,4.5H23c0.2,0,0.4,0.1,0.5,0.2s0.2,0.3,0.1,0.5L22,14.5c-0.1,0.6-0.5,1.2-0.9,1.6
	c-0.5,0.4-1.1,0.6-1.7,0.6H9.6C9.7,16.7,9.6,16.7,9.6,16.7z M6.8,6.6l1.5,7.6c0.1,0.3,0.2,0.6,0.5,0.8c0.2,0.2,0.6,0.3,0.9,0.3h9.7
	c0.3,0,0.6-0.1,0.9-0.3c0.2-0.2,0.4-0.5,0.5-0.8l1.5-7.6H6.8z"/>
</svg>
