<?xml version="1.0" encoding="utf-8"?>
<!-- Generator: Adobe Illustrator 27.7.0, SVG Export Plug-In . SVG Version: 6.00 Build 0)  -->
<svg version="1.1" id="Layer_1" xmlns="http://www.w3.org/2000/svg" xmlns:xlink="http://www.w3.org/1999/xlink" x="0px" y="0px"
	 viewBox="0 0 32 32" style="enable-background:new 0 0 32 32;" xml:space="preserve">
<style type="text/css">
	.st0{fill:#222125;}
</style>
<path class="st0" d="M16,30c-0.6,0-1-0.4-1-1v-3c0-0.6,0.4-1,1-1s1,0.4,1,1v3C17,29.6,16.6,30,16,30z M25.2,26.2
	c-0.3,0-0.5-0.1-0.7-0.3l-2.1-2.1c-0.4-0.4-0.4-1,0-1.4s1-0.4,1.4,0l2.1,2.1c0.4,0.4,0.4,1,0,1.4C25.7,26.1,25.4,26.2,25.2,26.2z
	 M6.8,26.2c-0.3,0-0.5-0.1-0.7-0.3c-0.4-0.4-0.4-1,0-1.4l2.1-2.1c0.4-0.4,1-0.4,1.4,0s0.4,1,0,1.4l-2.1,2.1
	C7.3,26.1,7.1,26.2,6.8,26.2z M16,23c-3.9,0-7-3.1-7-7s3.1-7,7-7s7,3.1,7,7S19.9,23,16,23z M16,11c-2.8,0-5,2.2-5,5s2.2,5,5,5
	s5-2.2,5-5S18.8,11,16,11z M29,17h-3c-0.6,0-1-0.4-1-1s0.4-1,1-1h3c0.6,0,1,0.4,1,1S29.6,17,29,17z M6,17H3c-0.6,0-1-0.4-1-1
	s0.4-1,1-1h3c0.6,0,1,0.4,1,1S6.6,17,6,17z M23.1,9.9c-0.3,0-0.5-0.1-0.7-0.3c-0.4-0.4-0.4-1,0-1.4l2.1-2.1c0.4-0.4,1-0.4,1.4,0
	s0.4,1,0,1.4l-2.1,2.1C23.6,9.8,23.3,9.9,23.1,9.9z M8.9,9.9c-0.3,0-0.5-0.1-0.7-0.3L6.1,7.5c-0.4-0.4-0.4-1,0-1.4s1-0.4,1.4,0
	l2.1,2.1c0.4,0.4,0.4,1,0,1.4C9.4,9.8,9.2,9.9,8.9,9.9z M16,7c-0.6,0-1-0.4-1-1V3c0-0.6,0.4-1,1-1s1,0.4,1,1v3C17,6.6,16.6,7,16,7z"
	/>
</svg>
