<?xml version="1.0" encoding="UTF-8"?>
<svg id="Layer_1" data-name="Layer 1" xmlns="http://www.w3.org/2000/svg" viewBox="0 0 26.38 23.99">
  <defs>
    <style>
      .cls-1 {
        fill: #fff;
      }
    </style>
  </defs>
  <path class="cls-1" d="m24.83,0c-.29.01-.58.09-.83.2-.25.1-1.72.73-3.87,1.65s-4.96,2.12-7.75,3.32C6.81,7.55,1.34,9.89,1.34,9.89l.04-.02s-.33.11-.66.34c-.17.12-.35.27-.49.49s-.26.53-.21.86c.14,1.15,1.34,1.48,1.34,1.48h0s5.34,1.83,5.34,1.83c.14.45,1.62,5.41,1.95,6.46.18.58.35.91.53,1.14.09.11.18.2.28.27.04.03.08.04.13.06,0,0,0,0,0,0,0,0,.01,0,.02,0h-.01s.02,0,.03.01c.02,0,.03,0,.06.01.61.21,1.12-.18,1.12-.18l.02-.02,3.28-3.04,5.33,4.15.07.03c.93.41,1.77.18,2.24-.2s.65-.87.65-.87l.02-.05,3.91-20.39c.1-.46.11-.85.02-1.21s-.32-.67-.61-.84S25.12-.01,24.83,0Zm.03,1.22c.12,0,.21,0,.23.02s.04.01.07.11.04.31-.03.64h0s-3.89,20.28-3.89,20.28c0,.02-.09.21-.28.36-.19.15-.4.27-.96.04l-5.82-4.54-.16-.13h0s-1.74-1.3-1.74-1.3l9.79-11.51c.21-.25.18-.63-.07-.85-.11-.1-.26-.15-.4-.14-.11,0-.22.04-.32.1L7.11,13.75l-5.35-1.83s-.53-.3-.56-.5c0-.01,0,0,.02-.04.03-.04.1-.11.18-.17.17-.12.37-.19.37-.19h.02s.02-.02.02-.02c0,0,5.47-2.35,11.03-4.73,2.78-1.19,5.59-2.39,7.74-3.32,2.16-.92,3.72-1.59,3.85-1.64.15-.06.3-.08.42-.09Zm-6.49,6.46l-7.42,8.73h0s-.02.03-.03.05c-.01.02-.02.03-.03.05-.04.07-.07.15-.08.23,0,0,0,0,0,0l-.97,4.35s-.03-.06-.04-.12h0c-.31-.99-1.71-5.66-1.9-6.3l10.48-6.99Zm-6.58,10.16l1.33,1-1.96,1.82.63-2.82Z"/>
</svg>