<?xml version="1.0" encoding="utf-8"?>
<!-- Generator: Adobe Illustrator 27.2.0, SVG Export Plug-In . SVG Version: 6.00 Build 0)  -->
<svg version="1.1" id="Layer_1" xmlns="http://www.w3.org/2000/svg" xmlns:xlink="http://www.w3.org/1999/xlink" x="0px" y="0px"
	 viewBox="0 0 50 50" style="enable-background:new 0 0 50 50;" xml:space="preserve">
<style type="text/css">
	.st0{fill:#FFFFFF;}
</style>
<path class="st0" d="M25.1,0.5c-1.5,0-2.9,0.1-4.4,0.3c-2.8,0.3-5.7,0.9-8.4,2.2C8,4.9,5,8.2,4.1,13.1c-0.4,2.1-0.7,4.1-0.8,6.2
	c-0.3,4.1-0.1,8.1,1,12.2c0.9,3.2,2.6,6,5.5,7.8c1.2,0.8,2.9,1.2,3.7,1.6c0.2,0.1,0.3,0.2,0.3,0.2c0,0,0,0,0,0.3c0,2.6,0,7.6,0,7.6
	l0,1.1h1.9l0.3-0.3c0,0,4.9-4.7,6.6-6.6c0.3-0.3,0.5-0.5,0.5-0.6c0,0,0,0,0.3,0c2.3,0,4.6-0.1,6.9-0.3c3-0.2,6.2-0.5,9.1-1.7
	c2.6-1.1,4.8-2.9,6.1-5.5c1.3-2.7,2.1-5.6,2.3-8.6c0.4-5,0.3-10-1.1-14.9c-0.8-2.9-2.4-5.3-4.9-7.1c-3-2.1-6.4-2.8-9.7-3.3
	c-1.9-0.3-3.9-0.5-5.8-0.5C26.1,0.5,25.6,0.5,25.1,0.5z M26.5,2.6c1.9,0.1,3.7,0.2,5.6,0.5c3.2,0.5,6.2,1.2,8.8,3
	c2.1,1.4,3.4,3.4,4.1,5.9c1.3,4.6,1.5,9.3,1,14.2c-0.2,2.8-0.9,5.4-2.1,7.9c-1.1,2.2-2.7,3.6-5,4.5c-2.6,1.1-5.4,1.4-8.4,1.5
	c-2.3,0.1-4.6,0.2-6.9,0.3c-0.6,0-1.1,0.2-1.5,0.5c-0.4,0.3-0.6,0.6-0.8,0.8c-1.3,1.4-3.8,3.8-5.1,5.1c0-1.6,0-3.5,0-5.3
	c0-0.6-0.1-1.1-0.4-1.6c-0.3-0.4-0.7-0.7-1.2-0.9c-1.2-0.6-2.8-1-3.5-1.4c-2.4-1.5-3.8-3.8-4.6-6.6c-1.1-3.7-1.3-7.5-1-11.4
	c0.2-2,0.5-4,0.8-6c0.8-4.2,3.2-6.9,7-8.6c2.4-1.1,5-1.7,7.7-2C22.8,2.7,24.6,2.6,26.5,2.6z M26.9,8c-0.9,0-1.7,0.1-2.6,0.3
	c-0.6,0.1-0.9,0.7-0.8,1.3c0.1,0.6,0.7,0.9,1.3,0.8c0.7-0.2,1.4-0.2,2.1-0.2c5.3,0,9.5,4.2,9.5,9.5c0,0.7-0.1,1.4-0.2,2.1
	c-0.1,0.6,0.2,1.2,0.8,1.3c0.6,0.1,1.2-0.2,1.3-0.8c0.2-0.8,0.3-1.7,0.3-2.6C38.6,13.2,33.4,8,26.9,8z M16.2,10.2
	c-0.2,0-0.4,0-0.5,0c-2,0.4-3.9,1.9-4,4.4c0.1,0.4,0.1,0.7,0.2,1.1c0.6,1.6,1.2,3.2,2,4.7c3.9,7.2,9.8,12.2,17.3,15.4
	c0.9,0.4,1.8,0.5,2.7,0.1c1.2-0.5,2.3-1.3,3-2.5c1-1.6,1-2.7-0.6-3.8c-1-0.8-2.1-1.6-3.1-2.3c-1.6-1.1-3.3-1.3-4.5,0.7
	c-0.1,0.1-0.2,0.2-0.2,0.3c-0.6,0.7-1.4,0.8-2.2,0.5c-3-1.2-5.4-3.3-6.8-6.3c-0.8-1.8-0.6-2.6,1-3.8c0.2-0.1,0.3-0.2,0.4-0.4
	c0.7-0.6,0.9-1.4,0.5-2.2c-0.9-1.9-2.1-3.6-3.7-5.1C17.2,10.4,16.7,10.2,16.2,10.2z M26.9,11.2c-0.5,0-0.9,0-1.4,0.1
	c-0.4,0.1-0.7,0.3-0.9,0.7c-0.1,0.4-0.1,0.8,0.2,1.1c0.3,0.3,0.7,0.4,1,0.4c0.3-0.1,0.7-0.1,1-0.1c3.5,0,6.3,2.8,6.3,6.3
	c0,0.4,0,0.7-0.1,1c-0.1,0.4,0.1,0.8,0.4,1c0.3,0.3,0.7,0.3,1.1,0.2c0.4-0.1,0.6-0.5,0.7-0.9c0.1-0.5,0.1-0.9,0.1-1.4
	C35.4,15,31.6,11.2,26.9,11.2z M26.8,14.5c-0.4,0-0.7,0.2-0.9,0.5c-0.2,0.3-0.2,0.7,0,1.1c0.2,0.3,0.6,0.5,0.9,0.5
	c1.8,0,3.2,1.4,3.2,3.2c0,0.4,0.2,0.7,0.5,0.9c0.3,0.2,0.7,0.2,1.1,0c0.3-0.2,0.5-0.6,0.5-0.9C32.2,16.9,29.7,14.5,26.8,14.5z"/>
</svg>
