<?xml version="1.0" encoding="utf-8"?>
<!-- Generator: Adobe Illustrator 27.2.0, SVG Export Plug-In . SVG Version: 6.00 Build 0)  -->
<svg version="1.1" id="Layer_1" xmlns="http://www.w3.org/2000/svg" xmlns:xlink="http://www.w3.org/1999/xlink" x="0px" y="0px"
	 viewBox="0 0 32 32" style="enable-background:new 0 0 32 32;" xml:space="preserve">
<style type="text/css">
	.st0{fill:none;stroke:#D74945;stroke-width:1.5;stroke-linecap:round;stroke-linejoin:round;}
	.st1{fill:#2E4454;stroke:#D74945;stroke-width:1.5;}
</style>
<path class="st0" d="M16,17.5v-8 M29,16c0,3.4-1.4,6.8-3.8,9.2S19.4,29,16,29s-6.8-1.4-9.2-3.8C4.4,22.8,3,19.4,3,16
	s1.4-6.8,3.8-9.2C9.2,4.4,12.6,3,16,3s6.8,1.4,9.2,3.8S29,12.6,29,16z"/>
<path class="st1" d="M16.8,22c0,0.4-0.3,0.8-0.8,0.8s-0.8-0.3-0.8-0.8s0.3-0.8,0.8-0.8S16.8,21.6,16.8,22z"/>
</svg>
