<?xml version="1.0" encoding="utf-8"?>
<!-- Generator: Adobe Illustrator 27.2.0, SVG Export Plug-In . SVG Version: 6.00 Build 0)  -->
<svg version="1.1" id="Layer_1" xmlns="http://www.w3.org/2000/svg" xmlns:xlink="http://www.w3.org/1999/xlink" x="0px" y="0px"
	 viewBox="0 0 51 51" style="enable-background:new 0 0 51 51;" xml:space="preserve">
<style type="text/css">
	.st0{fill:#FFFFFF;}
</style>
<path class="st0" d="M25.8,41.3c-0.6,0-14.5,0-18.1-1c-2.2-0.6-4-2.4-4.6-4.6c-1-3.6-1-10.9-1-11.2s0-7.6,1-11.2
	c0.6-2.2,2.4-4,4.6-4.6c3.6-1,17.5-1,18.1-1c0.6,0,14.5,0,18.1,1c2.2,0.6,4,2.4,4.6,4.6c1,3.6,1,10.9,1,11.2c0,0.3,0,7.6-1,11.2
	c-0.6,2.2-2.4,4-4.6,4.6C40.3,41.3,26.4,41.3,25.8,41.3z M25.8,9.3c-0.1,0-14.2,0-17.7,0.9c-1.7,0.5-3,1.8-3.5,3.5
	c-0.9,3.4-0.9,10.7-0.9,10.8s0,7.4,0.9,10.8c0.5,1.7,1.8,3,3.5,3.5c3.4,0.9,17.5,0.9,17.7,0.9s14.2,0,17.7-0.9
	c1.7-0.5,3-1.8,3.5-3.5c0.9-3.4,0.9-10.7,0.9-10.8s0-7.4-0.9-10.8c-0.5-1.7-1.8-3-3.5-3.5c0,0,0,0,0,0C40.1,9.3,26,9.3,25.8,9.3z
	 M21.3,32.2c-0.1,0-0.3,0-0.4-0.1c-0.2-0.1-0.4-0.4-0.4-0.7V17.7c0-0.3,0.1-0.5,0.4-0.7c0.2-0.1,0.5-0.1,0.8,0l11.9,6.9
	c0.2,0.1,0.4,0.4,0.4,0.7s-0.1,0.5-0.4,0.7l-11.9,6.9C21.5,32.1,21.4,32.2,21.3,32.2z M22,19v11l9.5-5.5L22,19z"/>
</svg>
